<?xml version="1.0" encoding="utf-8"?>
<!-- Generator: Adobe Illustrator 16.0.0, SVG Export Plug-In . SVG Version: 6.00 Build 0)  -->
<!DOCTYPE svg PUBLIC "-//W3C//DTD SVG 1.1//EN" "http://www.w3.org/Graphics/SVG/1.1/DTD/svg11.dtd">
<svg version="1.1" id="Layer_1" xmlns="http://www.w3.org/2000/svg" xmlns:xlink="http://www.w3.org/1999/xlink" x="0px" y="0px"
	 width="150px" height="61px" viewBox="0 0 150 61" enable-background="new 0 0 150 61" xml:space="preserve">
<g>
	<path fill="#FEFEFE" d="M47.292,29.417l7.024-0.379c0.189,1.138,0.38,2.09,0.948,2.849c0.759,1.138,1.9,1.707,3.228,1.707
		c1.139,0,1.897-0.38,2.466-0.948c0.572-0.569,0.952-1.139,0.952-1.897c0-0.762-0.38-1.331-0.952-1.9
		c-0.568-0.569-1.707-1.138-3.793-1.518c-3.231-0.952-5.507-1.9-6.835-3.417c-1.521-1.331-2.09-3.038-2.09-5.127
		c0-1.328,0.38-2.659,0.948-3.987c0.763-1.138,1.9-2.086,3.229-2.848c1.517-0.759,3.417-1.138,5.886-1.138
		c3.228,0,5.504,0.759,7.024,1.9c1.707,1.328,2.656,3.415,3.035,6.263l-7.021,0.379c-0.192-1.138-0.572-2.086-1.141-2.655
		c-0.569-0.572-1.518-0.762-2.466-0.762c-0.952,0-1.521,0.19-2.09,0.572c-0.38,0.379-0.569,0.949-0.569,1.518
		c0,0.379,0.189,0.759,0.569,1.138c0.379,0.382,1.138,0.762,2.469,0.952c3.228,0.758,5.504,1.707,6.835,2.465
		c1.518,0.759,2.466,1.71,3.225,3.038c0.572,1.142,0.951,2.469,0.951,3.987c0,1.71-0.568,3.228-1.331,4.748
		c-0.948,1.518-2.086,2.656-3.604,3.418c-1.521,0.758-3.421,1.138-5.697,1.138c-4.176,0-7.024-0.948-8.541-2.659
		C48.429,34.354,47.481,32.075,47.292,29.417L47.292,29.417z"/>
	<polygon fill="#FEFEFE" points="72.731,11.381 79.756,11.381 88.676,26.189 88.676,11.381 95.701,11.381 95.701,38.341 
		88.676,38.341 79.756,23.533 79.756,38.341 72.731,38.341 	"/>
	<polygon fill="#FEFEFE" points="98.359,11.381 106.143,11.381 111.461,30.748 116.775,11.381 124.369,11.381 115.447,38.341 
		107.475,38.341 	"/>
	<path fill="#FEFEFE" d="M139.555,33.976h-8.352l-1.328,4.365h-7.404l8.922-26.959h8.162l8.928,26.959h-7.783L139.555,33.976
		L139.555,33.976z M138.037,28.089l-2.654-9.683l-2.658,9.683H138.037z"/>
	<polygon fill="#FEFEFE" points="54.505,43.655 54.505,45.176 51.467,45.176 51.467,53.149 49.757,53.149 49.757,45.176 
		46.719,45.176 46.719,43.655 	"/>
	<polygon fill="#FEFEFE" points="61.91,43.655 61.91,45.176 57.543,45.176 57.543,47.642 60.958,47.642 60.958,48.973 
		57.543,48.973 57.543,51.628 61.91,51.628 61.91,53.149 55.644,53.149 55.644,43.655 	"/>
	<path fill="#FEFEFE" d="M70.262,50.87c0.189,0,0.189,0,0.379,0.189l0.762,0.568c-0.382,0.572-0.951,0.951-1.521,1.142
		c-0.569,0.189-1.327,0.38-2.09,0.38c-0.759,0-1.518-0.19-2.086-0.38c-0.569-0.19-0.948-0.569-1.518-0.952
		c-0.383-0.379-0.572-0.947-0.951-1.518c-0.19-0.568-0.19-1.137-0.19-1.896c0-0.762,0-1.33,0.38-1.899
		c0.189-0.569,0.572-1.138,0.951-1.518c0.38-0.572,0.948-0.763,1.518-0.952c0.759-0.379,1.328-0.379,2.087-0.379
		c0.762,0,1.521,0,2.089,0.189c0.38,0.379,0.949,0.569,1.331,0.951l-0.572,0.76c0,0.189-0.189,0.189-0.189,0.189h-0.189
		c-0.189,0-0.189,0-0.38,0c-0.189-0.189-0.189-0.189-0.379-0.379c-0.189,0-0.38-0.19-0.759-0.19c-0.189,0-0.572,0-0.951,0
		c-0.38,0-0.759,0-1.139,0.19c-0.569,0.189-0.759,0.379-1.138,0.568c-0.189,0.379-0.38,0.569-0.569,1.139
		c-0.189,0.379-0.189,0.758-0.189,1.33c0,0.569,0,0.949,0.189,1.328s0.38,0.759,0.569,1.139c0.379,0.189,0.568,0.379,0.948,0.568
		c0.379,0.189,0.759,0.189,1.138,0.189c0.38,0,0.569,0,0.763,0c0.189,0,0.379,0,0.568-0.189c0.189,0,0.38,0,0.38-0.189
		c0.189,0,0.379-0.189,0.568-0.379C70.072,50.87,70.072,50.87,70.262,50.87c0,0,0,0,0.189,0H70.262z"/>
	<polygon fill="#FEFEFE" points="81.084,53.149 79.186,53.149 79.186,48.973 74.627,48.973 74.627,53.149 72.731,53.149 
		72.731,43.655 74.627,43.655 74.627,47.642 79.186,47.642 79.186,43.655 81.084,43.655 	"/>
	<path fill="#FEFEFE" d="M84.121,43.655c0,0,0,0,0.189,0l0,0c0.189,0.189,0.189,0.189,0.189,0.189s0.189,0,0.189,0.189l5.129,6.266
		c0-0.189,0-0.379,0-0.568s0-0.189,0-0.379v-5.697h1.518v9.304h-0.949h-0.189c-0.189,0-0.189-0.189-0.379-0.189l-5.129-6.266
		c0,0.189,0,0.189,0,0.379c0,0.19,0,0.38,0,0.38v5.696h-1.518v-9.304H84.121L84.121,43.655z"/>
	<path fill="#FEFEFE" d="M102.916,48.403c0,0.569-0.189,1.328-0.381,1.896c-0.189,0.57-0.568,1.139-0.947,1.518
		c-0.379,0.383-0.949,0.762-1.518,0.952c-0.762,0.189-1.332,0.38-2.09,0.38s-1.521-0.19-2.09-0.38
		c-0.568-0.19-1.139-0.569-1.518-0.952c-0.568-0.379-0.947-0.947-1.139-1.518c-0.189-0.568-0.379-1.327-0.379-1.896
		c0-0.762,0.189-1.33,0.379-1.899c0.191-0.569,0.57-1.138,1.139-1.518c0.379-0.383,0.949-0.763,1.518-0.952
		c0.568-0.379,1.332-0.379,2.09-0.379s1.328,0,2.09,0.379c0.568,0.189,1.139,0.569,1.518,0.952c0.379,0.38,0.758,0.948,0.947,1.518
		C102.916,47.073,102.916,47.642,102.916,48.403L102.916,48.403z M101.018,48.403c0-0.572,0-0.951-0.189-1.33
		c-0.189-0.569-0.379-0.76-0.568-1.139c-0.379-0.189-0.568-0.379-0.951-0.568c-0.379-0.19-0.949-0.19-1.328-0.19
		c-0.568,0-0.949,0-1.33,0.19c-0.381,0.189-0.76,0.379-0.949,0.568c-0.379,0.379-0.568,0.569-0.758,1.139
		c0,0.379-0.191,0.758-0.191,1.33c0,0.569,0.191,0.949,0.191,1.328c0.189,0.379,0.379,0.759,0.758,1.139
		c0.189,0.189,0.568,0.379,0.949,0.568s0.762,0.189,1.33,0.189c0.379,0,0.949,0,1.328-0.189c0.383-0.189,0.572-0.379,0.951-0.568
		c0.189-0.38,0.379-0.76,0.568-1.139S101.018,48.973,101.018,48.403L101.018,48.403z"/>
	<polygon fill="#FEFEFE" points="106.143,51.628 110.129,51.628 110.129,53.149 104.436,53.149 104.436,43.655 106.143,43.655 	"/>
	<path fill="#FEFEFE" d="M120.381,48.403c0,0.569,0,1.328-0.379,1.896c-0.189,0.57-0.568,1.139-0.947,1.518
		c-0.381,0.383-0.949,0.762-1.521,0.952c-0.758,0.189-1.328,0.38-2.086,0.38c-0.76,0-1.518-0.19-2.09-0.38
		c-0.568-0.19-1.139-0.569-1.518-0.952c-0.568-0.379-0.758-0.947-1.141-1.518c-0.189-0.568-0.381-1.327-0.381-1.896
		c0-0.762,0.191-1.33,0.381-1.899c0.383-0.569,0.572-1.138,1.141-1.518c0.379-0.383,0.949-0.763,1.518-0.952
		c0.572-0.379,1.33-0.379,2.09-0.379c0.758,0,1.328,0,2.086,0.379c0.572,0.189,1.141,0.569,1.521,0.952
		c0.379,0.38,0.758,0.948,0.947,1.518C120.381,47.073,120.381,47.642,120.381,48.403L120.381,48.403z M118.484,48.403
		c0-0.572,0-0.951-0.189-1.33c-0.189-0.569-0.383-0.76-0.572-1.139c-0.189-0.189-0.568-0.379-0.947-0.568
		c-0.381-0.19-0.949-0.19-1.328-0.19c-0.57,0-0.949,0-1.328,0.19c-0.379,0.189-0.762,0.379-0.951,0.568
		c-0.379,0.379-0.57,0.569-0.57,1.139c-0.189,0.379-0.379,0.758-0.379,1.33c0,0.569,0.189,0.949,0.379,1.328
		c0,0.379,0.191,0.759,0.57,1.139c0.189,0.189,0.572,0.379,0.951,0.568s0.758,0.189,1.328,0.189c0.379,0,0.947,0,1.328-0.189
		c0.379-0.189,0.758-0.379,0.947-0.568c0.189-0.38,0.383-0.76,0.572-1.139S118.484,48.973,118.484,48.403L118.484,48.403z"/>
	<path fill="#FEFEFE" d="M126.457,51.817c0.381,0,0.76,0,1.139-0.189c0.193,0,0.572-0.189,0.762-0.189v-1.707h-1.141
		c-0.189,0-0.189,0-0.379-0.189c0,0,0,0,0-0.189v-0.949h3.227V52.2c-0.189,0.189-0.568,0.379-0.758,0.379
		c-0.379,0.19-0.57,0.19-0.949,0.38c-0.189,0-0.568,0.19-0.951,0.19c-0.379,0-0.758,0-1.139,0c-0.758,0-1.33,0-1.898-0.38
		c-0.76-0.19-1.139-0.569-1.709-0.952c-0.379-0.379-0.758-0.947-0.947-1.518c-0.189-0.568-0.379-1.137-0.379-1.896
		c0-0.762,0.189-1.33,0.379-1.899s0.568-1.138,0.947-1.518c0.57-0.383,1.139-0.763,1.709-0.952c0.568-0.379,1.33-0.379,2.088-0.379
		c0.76,0,1.521,0,2.09,0.379c0.57,0.189,1.139,0.38,1.518,0.762l-0.568,0.76c0,0.189-0.189,0.379-0.379,0.379
		c0,0-0.189-0.189-0.381-0.189c0,0-0.189-0.189-0.379-0.189c-0.189-0.189-0.379-0.189-0.568-0.189
		c-0.193-0.19-0.383-0.19-0.572-0.19s-0.568,0-0.76,0c-0.568,0-0.947,0-1.326,0.19c-0.383,0.189-0.762,0.379-0.953,0.568
		c-0.379,0.379-0.568,0.759-0.758,1.139c-0.189,0.379-0.189,0.758-0.189,1.33c0,0.569,0,0.949,0.189,1.518
		c0.189,0.379,0.379,0.759,0.758,0.949c0.191,0.379,0.57,0.568,0.953,0.758C125.51,51.628,126.078,51.817,126.457,51.817
		L126.457,51.817z"/>
	<rect x="131.961" y="43.655" fill="#FEFEFE" width="1.9" height="9.494"/>
	<polygon fill="#FEFEFE" points="142.406,43.655 142.406,45.176 138.037,45.176 138.037,47.642 141.459,47.642 141.459,48.973 
		138.037,48.973 138.037,51.628 142.406,51.628 142.406,53.149 136.141,53.149 136.141,43.655 	"/>
	<path fill="#FEFEFE" d="M149.242,45.366c0,0.189,0,0.189-0.189,0.189c0,0.189-0.189,0.189-0.189,0.189
		c-0.191,0-0.191-0.189-0.381-0.189c0,0-0.189-0.189-0.379-0.189c-0.195,0-0.379-0.19-0.576-0.19
		c-0.182-0.189-0.379-0.189-0.758-0.189c-0.189,0-0.379,0-0.568,0.189c-0.191,0-0.381,0-0.57,0.19c0,0.189-0.189,0.189-0.189,0.379
		s-0.189,0.379-0.189,0.379c0,0.38,0.189,0.569,0.189,0.569c0.189,0.189,0.379,0.38,0.568,0.38c0.191,0.189,0.57,0.189,0.76,0.379
		c0.189,0,0.576,0.189,0.758,0.189c0.381,0.189,0.576,0.189,0.955,0.383c0.189,0.189,0.57,0.189,0.76,0.379s0.379,0.569,0.379,0.76
		c0.189,0.189,0.189,0.568,0.189,0.947c0,0.38,0,0.949-0.189,1.139c-0.189,0.379-0.379,0.762-0.568,1.141
		c-0.381,0.189-0.76,0.38-1.145,0.569c-0.381,0.19-0.949,0.19-1.518,0.19c-0.189,0-0.57,0-0.949,0
		c-0.189-0.19-0.568-0.19-0.758-0.38c-0.381,0-0.57-0.19-0.76-0.38c-0.379,0-0.568-0.189-0.758-0.379l0.568-0.951h0.189
		c0-0.189,0.189-0.189,0.189-0.189c0.189,0,0.381,0,0.381,0.189c0.189,0,0.379,0.189,0.568,0.189
		c0.189,0.189,0.379,0.379,0.568,0.379s0.57,0.189,0.949,0.189s0.947-0.189,1.145-0.379c0.379-0.189,0.379-0.568,0.379-0.948
		s0-0.569-0.195-0.759c0,0-0.184-0.189-0.381-0.379c-0.182,0-0.568-0.189-0.758-0.189c-0.379-0.19-0.568-0.19-0.949-0.19
		c-0.189-0.189-0.568-0.189-0.758-0.38c-0.189-0.189-0.568-0.379-0.76-0.568c-0.189-0.193-0.379-0.383-0.568-0.572
		c0-0.379-0.189-0.759-0.189-1.139c0-0.379,0.189-0.758,0.379-0.947c0-0.38,0.189-0.763,0.57-0.952
		c0.189-0.19,0.568-0.38,0.947-0.569s0.949-0.189,1.518-0.189s0.949,0,1.523,0.189c0.57,0.189,0.949,0.379,1.328,0.759
		L149.242,45.366L149.242,45.366z"/>
	<line fill="none" stroke="#FEFEFE" stroke-width="0.1984" stroke-miterlimit="10" x1="46.719" y1="40.617" x2="150" y2="40.617"/>
	<path fill-rule="evenodd" clip-rule="evenodd" fill="#FEFEFE" d="M37.04,17.078c-0.189,0-0.38,0-0.569,0s-0.189,0-0.379,0
		c-0.19,0.379-0.38,0.569-0.572,0.758c0,0.379,0,0.19,0.192,0.569c0,0.379-0.192,0.189,0.569,0.948v0.383
		c-0.189-0.19-0.569-0.383-0.762-0.383c-0.569-0.379,0-0.569-1.139-0.759c-0.568-0.189-0.379-0.379-0.568-0.379
		c-0.38,0.379,0.379,0.379,0.379,1.138c-0.379,0-0.189,0-0.379-0.189c-0.19,0,0,0-0.19,0.189c-0.568,0-0.762-0.379-0.762-0.189
		c-0.189,0.189,0,0,0,0.189c-0.189,0.193-0.189,0.383-0.569,0.383c0.19-0.19,0.19-0.19,0.38-0.19v-0.382
		c-0.569,0-0.759,0.382-1.139,0.572c0,0.189-0.189,0.189-0.379,0.379c-0.189,0.379-0.379,0.569-0.759,0
		c0.948-0.379,0.189-0.762-0.379-0.762c0,0.193,0.189,0.383,0.189,0.572c0,0.19-0.189,0.19-0.189,0.379
		c0.379,0.379,0.379,0.189,0.189,0.759c-0.189-0.19-0.189-0.379-0.189-0.569l0,0l0,0l-0.19,0.19l0,0
		c-0.379,0.379-0.568,0.379-0.758,0.759c0.189,0.189,0.379,0.189,0,0.569c-0.19-0.189,0-0.189-0.573-0.379
		c0,0.379,0.193,0.569,0.193,1.328l0.189,1.521c0,0.379,0,3.038,0,3.796v0.569c-0.189,0.569-0.189,1.707-0.189,2.279
		c0,0.189,0,0.189-0.193,0.379c0,0,0,0.189,0,0.38c0,0.189,0,0.759,0,0.948s-0.189,0.189,0,0.379l0,0l1.521,0.952
		c0.189,0.189,0.379,0.568,0.568,0.759c0.19,0,0.19,0,0.38,0l2.658-0.948c0-0.19,0.19-0.19,0.38-0.19s0.189-0.192,0.379-0.192
		c0,0,0,0,0.189-0.19c0,0,0,0,0.19,0l0.189-0.189c0.189,0,0.189,0,0.189,0l0.572-0.379c0.189-0.189,0.569-0.189,0.948-0.379
		l0.948-0.76h0.19l2.658-1.899l0,0l0.569-0.379c0.189-0.189,0.759-0.759,0.948-0.948c0.189-0.19,0.189,0,0.189-0.19
		c0.189,0,0.189-0.189,0.38-0.379c0.192,0,0.192-0.19,0.192-0.19c-0.762-3.986-2.852-7.593-5.507-10.252
		c0,0.189,0,0.379,0.189,0.758c0,0.19-0.189,0.19,0,0.949c0.189,0,0.189,0,0.38,0.189c0,0-0.19,0-0.38,0.193
		c0,0.19,0.189,0.19,0.189,0.379c0,0.19,0,0-0.189,0.379c0,0.379-0.189,0.189-0.379,0.379c-0.189,0.189,0,0.189-0.38,0.189
		c-0.379,0-0.379,0-0.568-0.189c0.379,0,0.379,0,0.759,0c0.568-0.19,0.189-1.331,0.189-1.521c0.189-0.379,0,0,0-0.379
		s0-0.379,0-0.569c0-0.189,0-0.379,0-0.569C36.85,17.458,37.04,17.458,37.04,17.078L37.04,17.078z"/>
	<path fill-rule="evenodd" clip-rule="evenodd" fill="#FEFEFE" d="M22.991,20.306c-0.19,0.189-0.19,0.189-0.38,0.569
		s-0.189,0.379-0.189,0.759c0,0.19-0.189,0.19-0.189,0.19c-0.19,0.189,0,0.189-0.19,0.189l-0.189,0.19
		c-0.379,0.189-0.762,0.758-0.951,0.948c-0.38,0.952,0,0.762-0.19,1.141c0,0.379,0.38,0.759,0.569,0.949
		c0.762,0,0.572-0.379,0.952-0.569c0.189,0.19,0,0.379,0.189,0.759c0,0.189,0.189,0.189,0,0.379c-0.189,0-0.189-0.19-0.38-0.379
		c-0.951,0.189-0.189,1.331-0.951,1.71c0-0.19,0-0.19,0-0.19l0,0v-0.189c-0.189,0.189-0.189,0.379-0.38,0.759
		c-0.189,0.379-0.189,0.379-0.379,0.569s-0.379,0.379-0.569,0.569c-0.568,0.19-0.568-0.189-0.568,0.379c-0.19,0-0.38-0.189-0.572,0
		c0,0.19,0.382,0.569,0.572,0.759c0.189,0.19,0.379,0.759,0,0.952c-0.572,0.19-1.331-0.193-1.711,0.19c0,0.379,0.19,0.379,0,0.758
		c-0.189,0.19-0.189,0.19,0,0.57c0,0.379,0,0.379,0.19,0.568c0.568,0,0.379,0,0.568,0.189c0.38,0,0.189,0,0.572,0
		c0-0.189,0.189,0,0.38-0.189c0.189,0,0.379-0.189,0.379-0.379c0.189-0.38,0-0.38,0.38-0.569l0.568-0.569
		c0-0.189-0.189-0.189,0-0.379c0.38,0,0.38,0.189,0.759,0.189c0.193-0.189,0.193-0.379,0.572-0.572
		c0.189,0.193,0.38,0.572,0.759,0.951c0.189,0.189,0.569,0.38,0.948,0.569l-0.189,0.569c-0.379-0.189-0.379-0.189-0.759,0
		c0,0,0.189,0,0.38,0.189h0.189c0.189,0,0,0,0.189-0.189c0.189,0,0.189,0,0.569-0.379l-0.19-0.38c0.19,0,0.19,0.189,0.38,0.189
		c0-0.38,0-0.38-0.38-0.569c-0.379-0.189-0.948-0.568-1.138-1.141l0.189-0.189c0.38,0.379,0.19,0.379,0.569,0.762
		c0.379,0.189,0.379,0.189,0.759,0.379c0.379,0.379,0.379,1.328,0.948,1.518c0.38-0.379,0-0.568,0.189-0.948
		c0.19,0,0.19,0.189,0.38,0.189c0,0,0-0.38,0.572-0.38c0,0.19-0.189,0.38-0.189,0.38c-0.193,0.38,0,0.38,0,0.569
		s-0.193,0.568,0.189,0.568c0.379,0,0.379-0.189,0.759-0.189c0.189,0,0.189,0,0.379,0c0.38,0,0.189,0,0.189-0.379l0,0l0.19-1.897
		c0-0.193,0-0.383,0-0.383c0.189-0.189,0.189-0.189,0.189-0.379c0-0.19,0-0.379,0-0.569c0-0.189,0-0.189,0-0.379
		c0-0.569,0-0.948,0-1.517c0.189-0.379,0.189-1.521,0-1.9c0-0.189,0-0.569,0-0.948c0,0,0-0.189,0-0.379c0-0.189,0-0.189,0-0.569
		c0,0,0-0.19,0-0.383c0-0.379,0-0.189-0.189-0.379c0-0.189,0-0.758,0-0.948c0-0.189,0-0.189,0-0.379c-0.19-0.569,0-0.569-0.19-0.948
		c0-0.19,0-0.19,0-0.19c-0.189,0-0.568,0-0.759-0.189l-0.568-0.189c-0.189-0.19-0.572-0.379-0.762-0.762
		c-0.38,0-0.569,0.193-0.949,0.383h-0.379l-0.189,0.189c-0.38,0-0.38,0.19-0.759,0.19l0,0
		C22.991,20.306,22.991,20.116,22.991,20.306L22.991,20.306z"/>
	<path fill-rule="evenodd" clip-rule="evenodd" fill="#FEFEFE" d="M32.101,35.304c0.952,0.568,0.569,0.568,1.142,0.379
		c0.379,0.379,0.189,0.379,0.759,0.568c0.379,0,0.568,0,1.138,0c0.38-0.189,0.762,0.189,0.952,0.38c0.568,0.569,0,0.569,1.138,0.569
		c0,1.71,0.189,1.521,0.379,1.71c0.19,0.38,0.38,1.327,0.569,1.518c0.759,0,0.569-0.569,0.759-0.948c0-0.38-0.189-0.569,0.189-0.759
		c0.38-0.19,1.521-1.521,1.9-1.71c0.189,0,0.569,0,0.759,0c0.189,0.189,0,0.379,0.189,0.568c0,0.193,0.189,0.193,0.379,0.383
		c0.572-1.9,0.763-3.797,0.763-5.887l0,0c0-1.138,0-2.279-0.19-3.417l-0.189,0.19l-0.951,0.759c0,0,0,0,0,0.189l-0.759,0.569
		c-0.189,0-0.189,0.19-0.189,0.19c-0.19,0-0.19,0-0.19,0c0,0.193,0,0,0,0.193l-0.379,0.19l-0.189,0.189l-1.711,1.139h-0.189
		l-0.569,0.379c0,0.189,0,0.189,0,0.189s0,0-0.189,0l0,0c-0.379,0.189-0.759,0.568-1.327,0.759c-0.19,0-0.19,0-0.19,0l-2.658,1.331
		c0,0,0,0-0.189,0l-0.193,0.189l0,0L32.101,35.304L32.101,35.304L32.101,35.304z"/>
	<path fill-rule="evenodd" clip-rule="evenodd" fill="#FEFEFE" d="M25.266,51.249c1.521-0.189,1.521-0.569,2.09-1.518
		c0-0.189,0.189-0.379,0.189-0.568c0.19-0.38,0-0.19,0.38-0.38c0.189-0.19,0.189-0.38,0.379-0.759c0-0.572-0.759-0.383,0.572-1.331
		c0.38-0.189,0.38-0.189,0.569-0.948c0.189-1.142-0.189-0.759-0.189-1.331c0,0,0-0.38,0-0.569c0-0.379,0-0.379,0.189-0.568
		c0.379-0.569,0.948-1.328,1.518-1.707c0.759-0.569,0.759-0.76,1.138-1.711v-0.189c0-0.189,0,0,0,0c-0.379-0.189-1.138,0-1.518,0
		c-0.379,0.189-0.379,0.189-0.568,0c-0.19-0.189-0.19-0.569-0.38-0.759c-0.189,0.189-0.568,0.569-1.142,0.759h-0.379l0,0h-0.189
		c0,0.189,0,0.189-0.189,0.189c-0.19,0-0.569-0.189-0.759-0.189l-0.38,1.141C26.408,41,26.408,41,26.408,41
		c0,0.38,0,0.189-0.189,0.569l-1.711,3.606c0,0.19,0,0.19,0,0.38l-0.759,1.138l-0.189,0.189l0,0l0,0c-0.379,0.38,0,0.38,0.189,0.948
		c0.19,0.383,0.19,0.762,0.19,1.332v0.189c0,0,0,0,0,0.189l-0.19,0.189c0,0.189,0,0.189,0,0.379l1.139,0.76
		C25.077,51.06,25.077,51.06,25.266,51.249L25.266,51.249z"/>
	<path fill-rule="evenodd" clip-rule="evenodd" fill="#FEFEFE" d="M15.586,38.91c0,0.189,0,0.189,0,0.38h0.189
		c0,0.189,0,0.189,0,0.189c0.189,0.189,0.38,0.379,0.38,0.568c0.379,0.569,0.759,0.762,1.138,1.142c0.189,0.19,0.38,0.19,0.759,0.19
		s0.569-0.19,0.951-0.19c0.38,0,0.38,0.19,0.759,0c0.948-0.762,1.139,0,1.518,0.19c0,0,0.193,0,0.383,0s0.189,0,0.379,0.189
		c0,0.189-0.189,0.568-0.189,0.758s-0.189,0.38,0,0.569c0.38,0.569,0.38,0,0.759,1.138c0,0,0,0,0.189,0.189c0,0.19,0,0.19,0,0.38
		c0,0.192,0.38,0.383,0.19,0.763c0,0.189-0.38,0.189-0.38,0.379s-0.189,0.759-0.189,0.759c0.189,0.189,0.189,0.189,0.379,0.189
		c0,0,0,0,0-0.189l0.19-0.19c0.189-0.189,0.189-0.189,0.189-0.189c0-0.189,0-0.189,0.189-0.189c0.189-0.568,0-0.189,0.189-0.568
		l0.948-1.711c0,0,0-0.189,0.19-0.189c0-0.189,0-0.189,0-0.189c0-0.189,0.189-0.38,0.189-0.38c0-0.189,0-0.189,0.189-0.38
		l0.759-2.089c0-0.38,0.383-0.569,0.383-0.948c-0.383,0-0.383-0.189-0.572-0.38c-0.189-0.189-0.759-0.569-0.948-0.759
		c-0.38-0.951-0.19-1.141-0.949-0.951h-1.138c-0.379,0,0,0-0.759,0c-0.379,0-0.572,0-0.762,0c-0.569,0-0.569,0.189-1.328,0.189
		c-0.379-0.189,0.19-0.189-1.141-0.189c-0.38,0-0.38,0-0.759,0c-0.189,0-0.759,0-1.139,0L15.776,37.2
		C15.776,37.772,15.776,38.53,15.586,38.91L15.586,38.91z"/>
	<path fill-rule="evenodd" clip-rule="evenodd" fill="#FEFEFE" d="M8.562,48.403c0.189,0,0.379,0,0.569-0.189
		c0.189,0,0.189,0,0.568,0c0.19-0.383,0-0.383,0.19-0.572c0.189-0.379,0.379-0.189,0.379-0.568c0-0.569,0-0.949,0-1.518
		c0.189-0.189,0.189,0,0.379-0.189c0-0.19,0-0.19,0.19-0.38c0.189-0.19,0.379-0.19,0.379-0.383c0.189-1.138-0.189-0.759-0.759-1.138
		c-0.379-0.379-0.189-0.379-0.759-0.379c-0.379,0-0.379,0-0.568,0c0-0.19,0,0-0.19,0c0-0.38-0.189-0.57-0.568-0.57
		c-0.19,0.19-0.38,0.57-0.569,0.57c0-0.19,0.189-0.19,0.189-0.57c-0.379,0-0.379,0.19-0.762,0.38c0-0.38,0.193-0.189,0.383-0.759
		c0-0.189-0.189,0-0.189-0.379c-0.193,0-0.193-0.189-0.193-0.379c-0.379,0.189-0.189,0.379-0.379,0.758l-0.38-0.189
		c-0.189,0-0.189,0-0.379,0.189c0-0.189,0-0.189-0.19-0.379c-0.189-0.569,0-0.569-0.189-0.949c0-0.192-0.569-0.382-0.759-0.762
		c0.189,0,0.189-0.189,0.189-0.379c-0.189,0-0.189,0.189-0.379,0.189c-0.383,0-0.383-0.189-0.572-0.189
		c0,0.189-0.189,0.568-0.189,0.759L3.814,41v0.189c0,0.19-0.19,0.759-0.19,1.327C4.955,44.796,6.662,46.693,8.562,48.403
		L8.562,48.403z"/>
	<path fill-rule="evenodd" clip-rule="evenodd" fill="#FEFEFE" d="M6.852,17.268c0.189,0,0.189,0,0.379,0
		c0,0.19,0.193,0.759,0.193,0.948c-0.383,0-0.383-0.189-0.572-0.189c-0.19-0.19-0.38,0-0.38,0.189c0.189,0,0.38,0,0.38,0.19
		c-0.19,0-0.19,0-0.38,0c0,0.189,0.189,0.569,0.38,0.759l0.379-0.379c-0.189-0.19-0.189-0.19-0.189-0.379
		c0.189,0,0.383,0,0.383,0.189c0,0-0.193,0.759-0.193,0.952c-0.189,0-0.569,0.379-0.569,0.759s0.38,1.138,0.569,1.328
		c0.193,0.19,0.383,0.19,0.572,0.19c-0.189,0.189-0.379,0.189-0.572,0.379c0,0.379,0.572,0.758,0.951,1.331
		c0.19,0.19-0.189,0.19-0.189,0.379c0.189,0.19,0.38,0,0.569,0c0.189,0.19,0.189,0.379,0.379,0.569c0.19-0.19,0.19-0.759,0.38-0.949
		c0-0.572,0-0.572,0.379-0.952c0.38-0.379,0-0.758,0.569-1.138c0,0,0,0,0.189-0.19c0-0.189,0.189-0.189,0.189-0.189
		c0.19,0,0.19,0,0.38,0v-2.09c0-0.569,0-0.189,0.189-1.138v-0.948c0-0.189,0-0.189,0-0.572c0.189-0.379,0.189-1.328,0.38-1.707
		V14.04c0.192-0.379,0.192-0.379,0.192-0.569C10.08,14.419,8.373,15.747,6.852,17.268L6.852,17.268z"/>
	<path fill-rule="evenodd" clip-rule="evenodd" fill="#FEFEFE" d="M15.965,36.44c0.19,0,1.518,0,1.708,0.19c0.189,0,0,0,0.189,0
		c0.379,0,0.568,0,0.759,0c0.382,0,0.382,0,0.762,0l4.365-0.19c0.38,0,0.38,0,0.38-0.379c0.189-0.568,0.189-0.568,0.379-1.138
		c0.38-0.569,0.19-0.38,0.569-0.948c-0.569-0.19-0.189,1.138-1.518,0.379c-0.379-0.189-0.189-0.189-0.759-0.189
		c-0.379,0-0.379-0.189-0.379-0.572c0-0.19-0.189-0.38-0.189-0.38c0-0.189,0-0.189,0.189-0.379c-0.38-0.189-0.569-0.189-1.142,0
		c-0.189,0-0.569,0-0.948,0c-0.569,0.189-1.138,0.759-1.9,0.379c-0.189,0.189-0.189,0.189-0.379,0.38
		c-0.379,0.383-0.569,0.572-0.759,1.331c-0.189,0.189-0.189,0.189-0.379,0.38C15.965,35.872,16.345,35.872,15.965,36.44
		L15.965,36.44z"/>
	<path fill-rule="evenodd" clip-rule="evenodd" fill="#FEFEFE" d="M3.245,30.748c0.189-0.193,0.569-0.383,0.759-0.383
		c-0.189,0.19-0.189,0-0.189,0.573c0.189,0,0.189-0.19,0.379-0.19c0.189-0.193,0.951-0.572,1.142-0.572c0-0.379,0-0.379-0.19-0.569
		c-0.189,0-0.189,0.189-0.379,0.379c-0.383-0.19-0.193-0.379-0.762-0.19l0.189-0.379c0.189,0,0,0,0.189,0v-0.569
		c-0.379,0-0.568,0-0.759,0c0-0.19,0-0.19,0.19-0.19c0.758-0.189,0.568,0.19,0.951,0.379c0-0.379-0.193-0.379-0.193-0.569
		c0.383,0,0.383,0.189,0.763,0c0-0.19,0.189-0.379,0.568-0.379c-0.189,0.379-0.568,0.948-0.379,1.328h0.759
		c-0.189,0.19-0.189,0.19-0.38,0.19c0.19,0.189,0.19,0.189,0.38,0.379c0.189-0.19,0.189-0.19,0.379-0.379c0.19,0,0.19,0.189,0.38,0
		c0.189-0.569-0.569-0.949-0.948-1.138c0-0.19,0.189-0.19,0.189-0.569c0-0.19-0.189,0,0-0.379c0-0.379,0-0.379-0.189-0.569
		c-0.19-0.189-0.19,0-0.38,0c0-0.189,0,0,0-0.189c-0.189-0.383-0.379-0.193-0.569-0.572c-0.572-0.948-0.189-0.19-0.379-0.759
		c0,0-0.193-0.569-0.193-0.759c-0.189-0.189-0.189-0.569-0.379-0.569c-0.189,0.379-0.379,0.759-0.759,0.948
		c-0.569-0.189-0.379-0.569-0.379-0.759c0-0.379,0-0.379-0.19-0.379l-0.379-0.189c-0.569,1.518-0.948,2.845-1.328,4.555l0,0
		l0.569,0.759l0,0c0.189,0,0.189,0.19,0.189,0.19l0,0c0.19,0.189,0,0.189,0.19,0.189l0.568,0.759
		C2.865,30.365,3.055,30.555,3.245,30.748L3.245,30.748z"/>
	<path fill-rule="evenodd" clip-rule="evenodd" fill="#FEFEFE" d="M11.79,19.547c0.38,0.379,0.38,0.19,1.138-0.193
		c0.38-0.379,0.759-0.569,1.139-0.759c0-0.189,0-0.189-0.189-0.189c-0.38-0.19-0.38,0-0.759-0.19c-0.19-0.189,0-0.189,0.379-0.379
		c0-0.189,0,0-0.189-0.189c0,0,0,0,0-0.189c0.379,0,0.569,0.569,0.569,0.758h0.379l0,0l0,0c0.383-0.379,0.383-0.379,0-0.948
		c-0.379-0.569-0.569-0.569-0.759-0.952c0.189,0,0.38,0,0.569,0v-0.379c0.383,0,0.572,0.19,0.572-0.189s-0.189-0.19-0.383-0.569
		c0.193-0.189,0.383-0.189,0.572-0.379c0-0.189-0.572-0.379-0.572-0.758c0.193,0,0.383,0.189,0.572,0.189
		c0-0.189,0-0.379-0.189-0.569c-0.189-0.379-0.189-0.19-0.383-0.569c0-0.189,0.193-0.379,0.383-0.569
		c0.189,0.189,0.189,0.379,0.379,0.379l0.19-0.762c-0.19,0-0.38,0-0.38,0c-0.762,0.19-1.331,0.572-2.09,0.952
		c-0.189,0.379-0.189,0.949-0.189,1.138c-0.189,0.19-0.189,0.379-0.189,0.569l-0.189,1.138c0,0.379-0.19,0.762-0.19,1.142
		s0,0.948,0,1.328L11.79,19.547L11.79,19.547z"/>
	<path fill-rule="evenodd" clip-rule="evenodd" fill="#FEFEFE" d="M30.015,38.721c0,0,0.189,0.379,0.379,0.569
		c0.38,0.189,1.896-0.76,2.466-0.949l0.762-0.568v-0.193l0.19-0.189c0.189-0.189,0.189-0.379,0.189-0.569
		c0-0.189-0.189-0.38-0.38-0.38c-0.568-0.189-0.189-0.189-0.568-0.568c-0.193,0.189-0.193,0.379-0.572,0.568
		c-0.569,0-0.38,0-0.38-0.568c-0.379-0.189-0.189,0.189-0.569-0.379l-0.758,0.379c0,0.568,0.189,0.759,0,1.518l-0.19,0.383
		C30.583,37.962,30.205,38.53,30.015,38.721L30.015,38.721z"/>
	<path fill-rule="evenodd" clip-rule="evenodd" fill="#FEFEFE" d="M0.968,33.785c0.189-0.192,0.38-0.383,0.569-0.383
		c0-0.758-0.189,0,0.379-1.137c0-0.38,0-0.38,0.38-0.57c0.189,0,0.379-0.189,0.568-0.189l-0.379-0.379c-0.189-0.189,0,0-0.379-0.379
		l-0.759-0.952c-0.19-0.189-0.19-0.379-0.38-0.379c0,0.759-0.189,1.71-0.189,2.659l0,0C0.779,32.645,0.779,33.213,0.968,33.785
		L0.968,33.785z"/>
	<path fill-rule="evenodd" clip-rule="evenodd" fill="#FEFEFE" d="M17.863,25.241l0.189,0.189c0,0.189-0.189,0.189-0.189,0.379l0,0
		h0.189c0,0.189,0,0,0,0c0.189,0.189,0,0,0.189,0.189l-0.189,0.19c0,0.189,0.189,0.189,0.569,0.189l-0.19,0.383h0.383
		c0,0.379,0,0.379-0.192,0.569c0,0,0,0.379-0.19,0.379c0.19,0.19,0.19,0.19,0.19,0.19c0,0.189,0,0.189,0,0.189
		c-0.19,0.189-0.38,0.189-0.38,0.379c0.189,0,0.572,0,0.762,0c0.38-0.19,0.759,0,0.949-0.19c0-0.189-0.19-0.189,0-0.379
		c0,0,0.379-0.379-0.19-0.949c-0.189-0.189-0.759-0.762-0.948-0.952c0.189-0.189,0.38-0.189,0.569-0.379
		c-0.189-0.189-0.38-0.189-0.569-0.379c0-0.19,0,0,0-0.19c-0.192-0.189-0.192-0.189-0.383,0
		C18.242,25.241,18.052,25.051,17.863,25.241L17.863,25.241z"/>
	<path fill-rule="evenodd" clip-rule="evenodd" fill="#FEFEFE" d="M30.205,48.973c0.759,0.38,0.948-0.948,1.138-1.521
		c0.189-0.569,0.569-1.518,0.38-2.276c-0.19,0.19-0.569,0.569-0.759,0.759c-0.948,1.139-0.569,0.759-0.569,1.328
		c-0.189,0.189-0.189,0.189-0.189,0.568c-0.189,0.193,0,0.383,0,0.572C30.394,48.973,30.205,48.593,30.205,48.973L30.205,48.973z"/>
	<path fill-rule="evenodd" clip-rule="evenodd" fill="#FEFEFE" d="M13.686,21.444c0.19,0.189,0.19,0,0.38,0.189
		c0,0-0.189,0-0.38,0.19c0.19,0,0,0,0.19,0l0.379,0.189c0,0.19,0,0,0,0.19c0.193,0.189,0.952,0.379,1.331,0.189
		c1.138-0.759,0.948-0.948,0.379-1.328c-0.189-0.379-0.379-0.19-0.948,0c-0.189,0.189-0.379,0-0.568,0l-0.193-0.379
		C14.066,20.685,13.876,21.064,13.686,21.444L13.686,21.444z"/>
	<path fill-rule="evenodd" clip-rule="evenodd" fill="#FEFEFE" d="M32.291,16.699c0.19,0,0.38,0,0.569,0
		c0.193-0.572,0.383-0.572,0.572-1.142c0-0.379,0.38-0.759,0.759-0.948c-0.379,0-0.569-0.189-0.759-0.379
		c-0.379,0.19-0.572,0-0.572,0.569c0,0.569,0,0.379-0.379,0.759c0,0.19,0.189,0.19,0.189,0.379c-0.189,0.19-0.189,0.19-0.38,0.379
		c0,0.193,0,0.383,0,0.572V16.699z"/>
	<path fill-rule="evenodd" clip-rule="evenodd" fill="#FEFEFE" d="M24.128,11.381c0-0.19,0-0.19,0-0.19l-0.189-0.189l-0.569-0.19
		c-0.189,0.19-0.189,0.19-0.379,0.379c-0.38,0.379,0,0.379,0.189,0.379c0,0.19-0.189,0.379-0.38,0.379
		c0,0.189,0.569,0.952,0.759,0.952S24.128,11.571,24.128,11.381L24.128,11.381z"/>
	<path fill-rule="evenodd" clip-rule="evenodd" fill="#FEFEFE" d="M2.865,22.961c0.19,0.19,0.19,0.19,0.38,0.19h0.379
		c0.19,0,0,0.189,0.19,0c-0.19-0.19-0.569-0.379-0.569-0.759C3.055,22.582,2.865,22.771,2.865,22.961L2.865,22.961z M3.245,22.392
		c0.379,0.189,0.569,0.759,0.948,0.759l-0.189-0.379c0.189-0.19,0.379-0.19,0.379-0.19c-0.189-0.569-0.568-0.379-0.759-0.948
		C3.434,21.823,3.245,22.203,3.245,22.392L3.245,22.392z"/>
	<path fill-rule="evenodd" clip-rule="evenodd" fill="#FEFEFE" d="M3.055,41.38l0.189-1.332l0,0l0.189-0.568
		c-0.189,0-0.379,0-0.569,0c-0.379,0,0.19,0-0.189,0.189L2.486,39.29l-0.189,0.189C2.486,40.237,2.675,40.81,3.055,41.38
		L3.055,41.38z"/>
	<path fill-rule="evenodd" clip-rule="evenodd" fill="#FEFEFE" d="M28.494,20.875c0.193,0.19,0.383,0.19,0.573,0.19
		c0.189-0.19,0.379-0.379,0.379-0.379c0.379-0.759-0.189-0.569-0.379-0.948c-0.19,0-0.19,0.189-0.38,0.189
		c-0.193,0.19-0.383,0.19-0.383,0.569C28.494,20.685,28.304,20.875,28.494,20.875L28.494,20.875z"/>
	<path fill-rule="evenodd" clip-rule="evenodd" fill="#FEFEFE" d="M17.104,26.951c0.189,0.379,0.379,0.19,0.379,0.569
		c-0.189,0.189-0.379,0-0.379,0.189c0,0.19,0.189,0.19,0.379,0.379c0.19-0.189,0.569-0.379,0.569-0.569
		c0.189-0.759,0.189-0.759,0-0.952C17.863,26.568,17.293,26.951,17.104,26.951L17.104,26.951z"/>
	<path fill-rule="evenodd" clip-rule="evenodd" fill="#FEFEFE" d="M22.991,19.354l2.275-0.759c0-0.379,0-0.379,0-0.759
		c-0.379,0.19-0.189,0.19-0.379,0.379c-0.189,0.19-0.38,0-0.759,0C23.559,19.354,23.37,18.785,22.991,19.354L22.991,19.354z"/>
	<path fill-rule="evenodd" clip-rule="evenodd" fill="#FEFEFE" d="M4.003,21.064c0,0.189,0,0,0,0.379
		c0.189,0.189,0.379,0.379,0.568,0.379c0-0.19,0-0.379,0-0.569c0.193-0.379,0.193-0.189,0.383-0.569
		c-0.189-0.19-0.383-0.19-0.572-0.379C4.193,20.495,4.003,20.875,4.003,21.064L4.003,21.064z"/>
	<path fill-rule="evenodd" clip-rule="evenodd" fill="#FEFEFE" d="M1.727,37.962c0.189,0,0.569,0.189,0.759,0.189
		c0.189-0.189,0.189-0.189,0.379-0.189c0.19,0,0.19,0,0.38,0c0-0.189-0.38-0.383-0.759-0.383l-0.379,0.193
		C1.917,37.772,1.917,37.772,1.727,37.962L1.727,37.962z"/>
	<path fill-rule="evenodd" clip-rule="evenodd" fill="#FEFEFE" d="M32.481,17.458c0,0.379,0,0.569,0.189,0.569
		c0.383,0.189,0.572,0.189,0.762-0.19c0-0.189-0.189-0.189-0.379-0.379C32.67,17.458,32.67,17.458,32.481,17.458L32.481,17.458z"/>
	<path fill-rule="evenodd" clip-rule="evenodd" fill="#FEFEFE" d="M22.042,32.266c0-0.76,0-0.57-0.189-0.76
		c0-0.189,0.38-0.568-0.189-0.568c0,0.379,0.189,0.379,0.189,0.568c-0.189,0-0.189,0.189-0.379,0.189c0.189,0.19,0.189,0,0.189,0.38
		C21.663,32.266,21.663,32.266,22.042,32.266L22.042,32.266z"/>
	<path fill-rule="evenodd" clip-rule="evenodd" fill="#FEFEFE" d="M39.125,41c0.189,0,0.189-0.19,0.38-0.383
		c-0.19-0.189-0.19-0.38-0.569-0.569C38.747,40.428,38.747,40.81,39.125,41L39.125,41z"/>
	<path fill-rule="evenodd" clip-rule="evenodd" fill="#FEFEFE" d="M31.153,18.975c0,0.379,0.379,0.572,0.569,0.19
		c0-0.19-0.19-0.19-0.38-0.379L31.153,18.975L31.153,18.975z"/>
	<path fill-rule="evenodd" clip-rule="evenodd" fill="#FEFEFE" d="M19.953,32.266c0.189,0.189,0,0,0.379,0
		c0.189-0.19,0.189-0.19,0.379-0.19c0-0.189,0-0.189-0.189-0.38c-0.189,0.19-0.189,0.19-0.379,0.38
		C19.953,32.075,19.953,32.075,19.953,32.266L19.953,32.266z"/>
	<path fill-rule="evenodd" clip-rule="evenodd" fill="#E5E6E7" d="M4.193,39.669c0.189,0,0.379,0.189,0.572,0.189
		c0.189,0,0.189-0.189,0.379-0.189c0,0.189,0,0.379-0.189,0.379c0.189,0.38,0.759,0.569,0.948,0.762c0,0.38-0.189,0.38,0,0.949
		c0.19,0.189,0.19,0.189,0.19,0.379c0.189-0.189,0.189-0.189,0.379-0.379l0.38,0.189c0.189-0.189,0-0.379,0.379-0.568
		c0,0.189,0,0.379,0.193,0.379c0,0.379,0.189,0.189,0.189,0.379c-0.189,0.569-0.383,0.189-0.383,0.569
		c0.383,0,0.383-0.19,0.762-0.19c0,0.38-0.189,0.38-0.189,0.57c0.189,0,0.379-0.38,0.569-0.57c0.379,0,0.568,0.19,0.568,0.57
		c0.19,0,0.19-0.19,0.38,0c0.189,0,0,0,0.379,0c0.569,0,0.38,0,0.759,0.379c0.569,0.379,0.948,0,0.948,1.138
		c-0.189,0.192-0.379,0.192-0.568,0.383c-0.19,0.189-0.19,0.189-0.19,0.38c-0.189,0-0.189,0-0.379,0.189c0,0.568,0,0.948,0,1.518
		c0,0.379-0.189,0.189-0.379,0.568c-0.19,0.189,0,0.189-0.19,0.572c-0.379,0-0.379,0-0.568,0c-0.19,0.189-0.38,0.189-0.569,0.189
		c2.086,1.707,4.365,2.846,6.835,3.797c0.189,0,0.189-0.189,0.379-0.189h0.189c0.19,0,0.19,0,0.19,0l2.086-0.951c0,0,0,0,0.189,0
		c0.19-0.189,0.383-0.38,0.763-0.569l0.379-0.38c0,0,0,0,0.189,0c-0.189-0.189-0.189-0.189-0.189-0.379
		c-0.189-0.379-0.189-1.139-0.189-1.707c0.189-0.193,0.379-0.383,0.379-0.572l-0.189-0.189c-0.189-0.189-0.189-0.189-0.189-0.189
		c-0.189-0.19-0.189-0.19-0.189-0.38l-0.572-0.759h-0.19l-0.379-0.568l0,0c0-0.19,0-0.19,0-0.19L15.586,41c0,0,0,0.189,0,0
		l-0.379-0.763c0-0.189,0-0.189,0-0.189l-0.759-1.896c-0.193-0.189-0.193,0-0.193-0.379c-0.379,0-0.759,0.189-0.948,0l-0.189-0.193
		c-0.38-0.189-0.569-0.379-0.569-0.759s-0.189-0.189-0.379-0.38c-0.19,0-0.572-0.189-0.572-0.189L9.89,35.683
		c-0.38-0.189-0.949-0.189-1.328-0.569h-0.38c-0.189-0.189-0.568-0.38-0.758-0.569c-0.383,0-0.193,0.189-1.331,0.189v0.38
		c-0.19,0.19-0.759,1.518-0.949,1.707c0,0,0,0,0,0.19l0,0L4.955,37.39c-0.189,0.572-0.383,0.951-0.572,1.521c0,0.189,0,0.189,0,0.38
		C4.382,39.479,4.382,39.479,4.193,39.669L4.193,39.669z"/>
	<path fill-rule="evenodd" clip-rule="evenodd" fill="#E5E6E7" d="M30.205,48.973c0-0.38,0.189,0,0-0.569
		c0-0.189-0.189-0.379-0.189-0.572c0.189-0.379,0.189-0.379,0.189-0.568c0.189-0.569-0.189-0.189,0.759-1.328
		c0.189-0.189,0.568-0.759,0.759-0.759c0.189,0.759-0.19,1.707-0.38,2.276C31.153,48.024,30.963,49.353,30.205,48.973L30.205,48.973
		z M42.353,37.962C40.267,44.796,34.95,50.3,28.115,52.2c-0.189,0-0.189,0-0.379,0l-0.569-0.189l0,0l0,0l0,0c0,0,0,0-0.189,0
		l-0.19-0.193c-0.379-0.189-0.951-0.379-1.521-0.568c1.521-0.189,1.521-0.569,2.09-1.518c0-0.189,0.189-0.379,0.38-0.568
		c0-0.57-0.19-0.19,0.189-0.57c0.189,0,0.189-0.379,0.379-0.568c0.189-0.572-0.759-0.383,0.572-1.331
		c0.569-0.38,0.38-0.189,0.569-0.948c0.189-1.142-0.189-0.759-0.189-1.331c0,0,0-0.38,0-0.569c0-0.379,0-0.379,0.189-0.758
		c0.379-0.38,0.948-1.139,1.518-1.518c0.759-0.569,0.759-0.76,1.138-1.711v-0.189c0-0.189,0,0,0-0.189
		c-0.379,0-1.138,0.189-1.518,0.189c-0.379,0-0.379,0.189-0.568-0.189c-0.19,0-0.19-0.38-0.38-0.569c0.189,0,0.189,0,0.189-0.189
		c0,0,0,0,0.19,0l0,0c0,0,0.189,0.379,0.379,0.569c0.38,0.189,1.896-0.76,2.466-0.949l0.762-0.568v-0.193l0.19-0.189
		c0.189-0.189,0.189-0.379,0.189-0.569c0-0.189-0.189-0.38-0.38-0.38c-0.568-0.189-0.189-0.189-0.568-0.568
		c-0.193,0.189-0.193,0.379-0.572,0.568c-0.569,0-0.38,0-0.38-0.568c-0.379-0.189-0.189,0.189-0.569-0.379l0,0c0.19,0,0.19,0,0.38,0
		c0.189-0.189,0-0.189,0.189-0.189c0.952,0.568,0.569,0.568,1.142,0.379c0.379,0.189,0.189,0.379,0.759,0.568
		c0.379,0,0.568,0,1.138-0.189c0.38,0,0.762,0.189,0.952,0.379c0.568,0.76,0,0.76,1.138,0.76c0,1.71,0.189,1.521,0.379,1.71
		c0.19,0.38,0.38,1.327,0.569,1.518c0.759,0,0.569-0.759,0.759-1.138c0-0.19-0.189-0.38,0.189-0.569c0.38-0.19,1.521-1.521,1.9-1.71
		c0.189,0,0.569,0,0.759,0c0.189,0.189,0,0.379,0.189,0.568C41.974,37.772,42.164,37.772,42.353,37.962L42.353,37.962z M39.125,41
		c-0.379-0.19-0.379-0.572-0.189-0.952c0.189,0.189,0.379,0.38,0.569,0.569C39.315,40.81,39.315,41,39.125,41L39.125,41z"/>
	<path fill-rule="evenodd" clip-rule="evenodd" fill="#E5E6E7" d="M14.449,21.064c0.189,0,0.379,0.189,0.568,0
		c0.569-0.19,0.759-0.379,0.948,0c0.38,0.379,0.759,0.569-0.379,1.328c-0.379,0.189-1.138,0-1.331-0.189c0-0.19,0,0,0-0.19
		l-0.379-0.189c-0.19,0,0,0-0.19,0c0.19-0.19,0.38-0.19,0.38-0.19c-0.189-0.189-0.189,0-0.38-0.189
		c0.19-0.379,0.38-0.759,0.569-0.759L14.449,21.064z M22.042,10.812L22.042,10.812h0.19c0,0.19,0.189,0.19,0.189,0.19v-0.19h0.189
		c0,0.19,0.189,0.379,0.569,0h0.189c-0.189,0.19-0.189,0.19-0.379,0.379c-0.38,0.379,0,0.379,0.189,0.379
		c0,0.19-0.189,0.379-0.38,0.379c0,0.189,0.569,0.952,0.759,0.952s0.569-1.331,0.569-1.521c0.189,0,0.189,0,0.189,0.189
		c0.189,0,0.189,0.19,0.189,0.19l0.19,0.189l0,0v0.189l0,0l0.379,0.572c0,0,0,0,0,0.19l0.38,0.379
		c0.189,0.569,0.189,0.759,0.189,0.759c0.383,0.569,0.383,0.948,0.572,1.138l0.379,1.138c-0.379,0.193-0.379,0-0.762,0.383
		l-0.189,0.189c-0.189,0.379-0.189,0.379-0.189,0.569c-0.19,0.189-0.19,0.379-0.19,0.569c-0.379,0-0.379,0-0.568,0.189
		c0,0.19-0.19,0-0.569,0c-0.569,1.138-0.759,0.569-1.138,1.138l-2.47,1.141l0,0l0,0c-0.379,0.19-0.189,0-0.759,0.379l0,0
		l-1.899,1.138l0,0c-0.38,0.19-0.759,0.379-1.139,0.569l0,0l-1.138,0.759c-0.379,0.193-0.189,0.193-0.379,0.193c0,0,0,0,0,0.19
		l-1.142,0.759l-0.189,0.189l-0.38-0.189c0-0.19,0-0.19-0.189-0.19c-0.189-0.189-0.569-0.189-0.948-0.189
		c-0.189-0.19-0.189-0.19-0.569-0.19c0-0.762,0-1.331,0-2.089c0-0.759,0-1.518,0-2.276c0.38,0.379,0.38,0.19,1.138-0.193
		c0.38-0.379,0.759-0.569,1.139-0.759c0-0.189,0-0.189-0.189-0.189l0.189-0.19l0,0c0.189,0,0.189,0,0.189,0l0,0
		c0.383-0.379,0.383-0.379,0-0.948c-0.379-0.569-0.569-0.569-0.759-0.952c0.189,0,0.189,0,0.569,0v-0.379
		c0.189,0,0.572,0.19,0.572-0.189s-0.189-0.19-0.383-0.569c0.193-0.189,0.383-0.189,0.572-0.189c0-0.379-0.572-0.569-0.572-0.948
		c0.193,0,0.383,0.189,0.572,0.189c0-0.189-0.189-0.379-0.189-0.569c-0.189-0.379-0.189-0.19-0.572-0.569
		c0.189-0.189,0.383-0.379,0.572-0.569c0.189,0.189,0.189,0.379,0.379,0.379l0.19-0.762c-0.19,0-0.38,0-0.38,0
		C16.915,11.381,19.383,10.812,22.042,10.812L22.042,10.812z"/>
	<path fill-rule="evenodd" clip-rule="evenodd" fill="#E5E6E7" d="M19.953,32.266c0,0,0-0.19,0.189-0.19
		c0.189-0.189,0.189-0.189,0.379-0.38c0.189,0.19,0.189,0.19,0.189,0.38c-0.189,0-0.189,0-0.379,0.19
		C19.953,32.266,20.142,32.455,19.953,32.266L19.953,32.266z M21.663,30.938c0.569,0,0.189,0.379,0.189,0.568
		c0.189,0.189,0.189,0,0.189,0.76c-0.379,0.189-0.379,0-0.379-0.19c0-0.38,0-0.189-0.189-0.38c0.189,0,0.189,0,0.379-0.189
		C21.852,31.316,21.663,31.316,21.663,30.938L21.663,30.938z M17.104,26.951c0.189-0.189,0.759-0.382,0.948-0.382
		c0.189,0.193,0.189,0.193,0,0.952c0,0.189-0.379,0.379-0.569,0.569c-0.189-0.189-0.379-0.189-0.379-0.379
		c0-0.189,0.189,0,0.379-0.189C17.483,27.141,17.293,27.141,17.104,26.951L17.104,26.951z M17.863,25.241
		c0.189-0.19,0.189,0,0.568-0.19c0.19-0.189,0.19-0.189,0.383,0c0,0.19,0,0,0,0.19c0.189,0.189,0.38,0.189,0.38,0.379
		c0,0.19-0.19,0.19-0.38,0.379c0.189,0.19,0.759,0.762,0.948,0.952c0.569,0.569,0.19,0.949,0.19,0.949c-0.19,0.189,0,0.189,0,0.379
		c-0.19,0.19-0.569,0-0.949,0.19c-0.189,0-0.572,0-0.762,0c0-0.19,0.189-0.19,0.38-0.379c0,0,0,0,0-0.189c0,0,0,0-0.19-0.19
		l0.19-0.379c0.192-0.189,0.192-0.189,0.192-0.569h-0.383l0.19-0.383c-0.38,0-0.569,0-0.569-0.189l0.189-0.19
		c-0.189-0.189-0.189,0-0.189-0.189c-0.189,0,0,0.189,0,0h-0.189c0,0,0,0,0-0.19c0,0,0.189,0,0.189-0.189L17.863,25.241
		L17.863,25.241z M15.965,36.44c0.38-0.568,0-0.568,0.949-1.137c0.189-0.19,0.189-0.19,0.379-0.38
		c0.189-0.759,0.38-0.948,0.759-1.331c0.189-0.19,0.189-0.19,0.379-0.38c0.763,0.38,1.331-0.189,1.9-0.379c0.379,0,0.759,0,0.948,0
		c0.572-0.189,0.762-0.189,1.142,0c-0.189,0.189-0.189,0.189-0.189,0.379s0.189,0.189,0.189,0.38c0,0.383,0,0.572,0.379,0.572
		c0.569,0,0.38,0,0.759,0.189c1.328,0.759,0.948-0.569,1.518-0.379c0.569-0.383,0.38-0.383,0.952-0.573l0,0l0.189-0.189
		c-0.383,0-0.189-0.379-0.189-0.568s-0.193-0.189,0-0.569c0,0,0.189-0.189,0.189-0.38c-0.572,0-0.572,0.38-0.572,0.38
		c-0.189,0-0.189-0.189-0.38-0.189c-0.189,0.38,0.19,0.569-0.189,0.948c-0.569-0.189-0.379-1.139-0.948-1.518
		c-0.189-0.189-0.38-0.189-0.759-0.379c-0.189-0.383-0.189-0.573-0.569-0.762c0,0,0,0.189-0.189,0.189
		c0.189,0.573,0.759,0.952,1.328,1.141c0.189,0.189,0.189,0.189,0.189,0.569c-0.189,0-0.189-0.189-0.38-0.189l0.19,0.38
		c-0.38,0.379-0.38,0.379-0.569,0.379c0,0.189,0,0.189-0.189,0.189h-0.189c-0.19-0.189-0.19-0.189-0.38-0.189
		c0.38-0.189,0.38-0.189,0.759,0l0.189-0.569c-0.379-0.189-0.759-0.38-0.948-0.569c-0.379-0.379-0.569-0.758-0.759-0.951
		c-0.379,0.193-0.379,0.383-0.572,0.572c-0.379,0-0.379-0.189-0.759-0.189c-0.189,0.189,0,0.189,0,0.379l-0.568,0.569
		c-0.38,0.189-0.19,0.189-0.38,0.569c0,0.189-0.189,0.379-0.379,0.379c-0.19,0.189-0.38,0-0.38,0.189c-0.383,0-0.192,0-0.383,0
		c-0.379-0.189-0.189-0.189-0.568-0.189c-0.38-0.189-0.38-0.189-0.38-0.568c-0.189-0.38-0.189-0.38,0-0.57
		c0.19-0.379,0-0.379,0-0.758c0.38-0.383,1.331,0,1.711-0.19c0.379-0.193,0.189-0.762,0-0.952c0-0.189-0.572-0.569-0.572-0.759
		c0.192-0.189,0.382,0,0.572,0c0-0.569,0-0.189,0.568-0.379c0.19-0.189,0.38-0.379,0.569-0.569s0.189-0.189,0.379-0.569
		c0.19-0.379,0.19-0.569,0.38-0.759v0.189l0,0c0,0,0,0,0,0.19c0.762-0.379,0-1.521,0.951-1.71c0.19,0.189,0.19,0.379,0.38,0.379
		c0.189-0.19,0-0.19,0-0.379s0-0.569-0.189-0.759c-0.38,0.19-0.19,0.569-0.952,0.569c-0.189-0.19-0.569-0.569-0.569-0.949
		c0.19-0.379-0.189-0.189,0.19-1.141c0.189-0.19,0.762-0.759,0.951-0.948l0.189-0.19c0.19,0,0,0,0.19-0.189c0,0,0.189,0,0.189-0.19
		c0-0.379,0-0.379,0.189-0.759s0.189-0.189,0.38-0.569c-0.19,0-0.19,0-0.38,0.189l-0.569,0.19c0,0,0,0-0.189,0c0,0,0,0,0,0.189
		l-2.849,1.328l0,0l-3.228,1.9c0,0.189,0,0.189,0,0.189c-0.189,0-0.189,0-0.189,0l-0.948,0.759l0,0c-0.189,0.19,0,0-0.189,0.19
		c0.379,0.569,0.568,0.569,0.568,1.328c0,0.382,0.19,0.382,0,0.762c0,0.759-0.189,1.328-0.762,1.897l0,0l-0.759,0.569l0,0
		c-0.379,0.19-0.379,0.19-0.569,0.19c-0.189,0.189,0,0,0,0.189c-0.189,0.189-0.189,0,0,0.189c0,0.19,0,0,0,0.19l1.139,4.369
		c0.189,0.38,0.189,0.189,0.383,0.38l0.379,0.189c0.189,0.189,0.38,0.379,0.38,0.758C15.397,36.251,15.776,36.251,15.965,36.44
		L15.965,36.44z"/>
	<path fill-rule="evenodd" clip-rule="evenodd" fill="#E5E6E7" d="M4.382,20.306c0.189,0.189,0.383,0.189,0.572,0.379
		c-0.189,0.379-0.189,0.189-0.383,0.569c0,0.19,0,0.379,0,0.569c-0.189,0-0.379-0.19-0.379-0.379c-0.189-0.379,0-0.19-0.189-0.379
		l-0.38,0.569c0.19,0.569,0.569,0.379,0.759,0.948c0,0-0.189,0-0.379,0.19l0.189,0.379c-0.379,0-0.569-0.569-0.948-0.759H3.055
		c0.189,0.379,0.568,0.569,0.759,0.759c-0.19,0.189,0,0-0.19,0.189l-0.379-0.189c-0.189,0-0.189,0-0.38,0l-0.379,0.572
		c0.189,0,0.189,0.189,0.379,0.189c0.19,0,0.19,0.19,0.19,0.379c0,0.19-0.19,0.759,0.379,0.759c0.38,0,0.569-0.569,0.759-0.948
		c0.189,0.189,0.189,0.379,0.379,0.569c0,0.19,0.193,0.759,0.383,0.759c0,0.569-0.383-0.189,0.189,0.759
		c0.19,0.379,0.38,0.189,0.569,0.572c0,0.189,0,0,0,0.189c0.189,0,0.189-0.189,0.38,0.19c0.189,0,0.379,0.189,0.189,0.379
		c0,0.379,0.189,0.189,0.189,0.569c0,0.189-0.379,0.189-0.379,0.379c0.379,0.379,1.331,0.569,0.948,1.138
		c-0.189,0.379-0.189,0.189-0.38,0c-0.189,0.189-0.189,0.189-0.379,0.379c0,0-0.189-0.19-0.38-0.379c0.19,0,0.19,0,0.38,0
		l-0.759-0.19c0-0.379,0.379-0.948,0.379-1.328c-0.189,0-0.379,0.189-0.568,0.379c-0.38,0.189-0.38,0.189-0.763,0
		c0,0.379,0.193,0.189,0.383,0.569c-0.572,0-0.383-0.569-1.141-0.379c-0.19,0-0.19,0-0.19,0.19c0.19,0.189,0.38,0,0.759,0.189v0.379
		c-0.189,0,0,0-0.189,0l-0.189,0.379c0.568-0.189,0.379,0.19,0.762,0.19c0.189-0.19,0.189-0.379,0.379-0.379
		c0.19,0.189,0.19,0.379,0.19,0.569c-0.19,0-0.763,0.379-1.142,0.572c0,0-0.189,0.19-0.379,0.19c0-0.573,0-0.383,0.189-0.573
		c-0.189,0-0.569,0.19-0.759,0.383l2.279,1.897c0.189,0.189,0,0,0.189,0c0.759-0.379,0.759,0,0.948-0.189
		c0-0.189,0.19-0.38,0.19-0.38l0.379-0.38l0,0c0.193-0.379,0,0,0.193-0.379l1.517-1.9c0.19-0.189,0.19-0.379,0.38-0.569
		c0-0.19-0.759-1.138-0.38-2.659l0.38-0.759c0.189-0.189,0.189-0.189,0.189-0.189c0.189-0.19,0.189-0.19,0.189-0.19
		c0.569-0.569,0.569-0.569,0.759-0.569c0.38-0.379,0.189-0.19,0.569-0.19c0.379-0.189,0-0.379,0-1.141c0-0.19,0-0.569,0-0.759
		c0-0.379,0-0.759,0-1.328c-0.189,0.189,0,0-0.38,0c0,0,0,0.189-0.189,0.189c-0.189,0.19-0.189,0.19-0.189,0.19
		C9.7,21.823,10.08,22.203,9.7,22.582c-0.189,0.379-0.379,0.379-0.379,0.952c-0.189,0.379-0.189,0.949-0.38,0.949
		c-0.189-0.19,0-0.379-0.379-0.379c-0.189-0.19-0.38,0-0.569-0.19c0.189-0.189,0.38-0.189,0.189-0.379
		c-0.379-0.382-0.951-0.952-0.951-1.331c0.193-0.19,0.383,0,0.572-0.19c-0.189-0.189-0.379-0.189-0.572-0.379
		c-0.189-0.189-0.569-0.948-0.569-1.328s0.38-0.759,0.569-0.759c0-0.193,0.193-0.762,0.193-0.952c0-0.189-0.193-0.189-0.383-0.189
		c0,0.189,0,0.189,0.189,0.379l-0.379,0.379c-0.19,0-0.38-0.379-0.38-0.759c0.189,0,0.189,0,0.38,0c0-0.19-0.19-0.19-0.38-0.19
		c0-0.189,0.189-0.379,0.38-0.189c0.189,0,0.189,0.189,0.572,0.189c0-0.189-0.193-0.758-0.193-0.948c-0.189,0-0.379,0-0.379,0
		C5.903,18.216,5.144,19.165,4.382,20.306L4.382,20.306z"/>
	<path fill-rule="evenodd" clip-rule="evenodd" fill="#E5E6E7" d="M25.077,11.191c0.189,0.19,0,0.19,0.189,0.19
		c0.19,0.189,0,0.189,0.19,0.379l0.572,1.141c0.189,0,0.189,0,0.189,0l0,0c0,0.189,0,0.189,0,0.189l0,0c0,0.19,0,0,0,0
		c0.189,0.379,0.568,0.949,0.568,1.328l0.19,0.379l0,0c0,0.19,0,0.19,0.189,0.19l0.189,0.948c0.189,0.19,0,0,0,0.19
		c0.759,0,1.138,0.189,1.711,0.762c0.189,0.19,0,0.19,0.189,0.379c0.189,0,0.568,0,0.759,0l0.759-0.189
		c0.189-0.19,0.379-0.19,0.758-0.19l0.759-0.189c0-0.19,0-0.383,0-0.383c0.19-0.379,0.19-0.189,0.38-0.379
		c0-0.189-0.189-0.189-0.189-0.569c0.379-0.19,0.379,0,0.379-0.569c0.193-0.569,0.193-0.569,0.572-0.569
		c-2.469-1.707-5.317-2.659-8.355-3.228V11.191C25.266,11.191,25.077,11.002,25.077,11.191L25.077,11.191z M25.077,11.002
		C25.077,11.191,25.077,11.191,25.077,11.002L25.077,11.002z"/>
	<path fill-rule="evenodd" clip-rule="evenodd" fill="#E5E6E7" d="M22.421,46.504c0,0,0.189-0.569,0.189-0.759
		s0.38-0.189,0.38-0.379c0-0.38-0.19-0.57-0.19-0.763c0-0.189,0-0.189,0-0.38c-0.189-0.189-0.189-0.189-0.189-0.189
		c-0.379-1.138-0.379-0.568-0.759-1.138c-0.189-0.189,0-0.38,0-0.569s0.189-0.568,0.189-0.758c-0.189-0.189-0.189-0.189-0.379-0.189
		s-0.383,0-0.572,0c-0.189-0.19-0.38-0.952-1.328-0.19c-0.379,0.19-0.379,0-0.759,0c-0.382,0-0.572,0.19-0.951,0.19
		s-0.569,0-0.759-0.19c-0.379-0.38-0.948-0.572-1.138-1.142c0-0.189-0.19-0.379-0.38-0.568c0,0.379,0.189,0.379,0.189,0.568
		c0.19,0.38,0.38,0.952,0.759,1.521l0.38,0.758l0,0l0,0l0,0l1.327,2.276c0.19,0,0.19,0,0.19,0.192l0,0l0.572,0.76
		c0.189,0.189,0.189,0.379,0.379,0.568l0.38,0.38c0.189,0.189,0.189,0.189,0.189,0.379c0.379,0,0.379-0.189,1.138-0.379
		C22.232,46.313,21.663,46.504,22.421,46.504L22.421,46.504z"/>
	<path fill-rule="evenodd" clip-rule="evenodd" fill="#E5E6E7" d="M1.727,37.962c0.189-0.189,0.189-0.189,0.38-0.189l0.379-0.193
		c0.379,0,0.759,0.193,0.759,0.383c-0.189,0-0.189,0-0.38,0c-0.189,0-0.189,0-0.379,0.189C2.296,38.151,1.917,37.962,1.727,37.962
		L1.727,37.962z M2.296,39.669c-0.38-0.759-0.569-1.518-0.759-2.09l0.189-0.189L1.538,37.2c-0.38-1.139-0.569-2.276-0.569-3.415
		c0.189-0.192,0.38-0.383,0.569-0.383c0-0.758-0.189,0,0.379-1.137c0-0.38,0-0.38,0.38-0.38c0.189-0.19,0.379-0.38,0.568-0.38
		c0.19,0.189,0.19,0.189,0.38,0.189l0.759,0.76c0,0,0,0,0,0.189l0.951,0.568l0,0c0.189,0.189,0.189,0.189,0.189,0.189
		c0,1.142,0.569,0.573,0,1.521v0.189c-0.379,0.569-0.379,0.759-0.379,0.759l-0.193,0.189L4.193,37.2
		c-0.189,0.572-0.379,1.141-0.569,1.71V39.1c-0.189,0.19-0.189,0.19-0.189,0.38c-0.189,0-0.379,0-0.569,0
		c-0.379,0,0.19,0-0.189,0.189L2.486,39.29L2.296,39.669z"/>
	<path fill-rule="evenodd" clip-rule="evenodd" fill="#E5E6E7" d="M7.614,33.976c0.189,0,0.189,0,0.189,0h0.189l0.759,0.568
		c0.189,0,0.189,0,0.189,0l1.707,0.569l0,0l1.521,0.569c0.189,0,0.189,0,0.189,0c0.189,0,0,0.189,0.189,0.189
		s0.189-0.189,0.379-0.379c0,0,0.19-0.189,0.38-0.189c0-0.38-0.189-0.38-0.189-0.76l-0.38-1.331c-0.189-0.189-0.189,0-0.189-0.189
		l-0.569-2.469c0-0.379,0,0,0-0.379c-0.189,0-0.189,0-0.382,0h-0.19l-0.379-0.189l0,0c-0.189,0-0.759-0.19-0.948-0.379
		c-0.189-0.19-0.189-0.19-0.38,0C9.51,29.796,9.51,29.796,9.51,29.796l-2.086,2.849C7.231,33.023,7.614,32.645,7.614,33.976
		L7.614,33.976z"/>
	<path fill-rule="evenodd" clip-rule="evenodd" fill="#E5E6E7" d="M26.787,52.579L26.787,52.579h0.19l0,0c-0.19,0-0.38,0-0.569,0
		s-1.71-0.762-1.9-0.951c-0.189,0-0.189,0-0.189,0l0,0c0-0.189,0-0.189-0.189-0.189l-1.138-0.759
		c-0.569,0.38-0.949,0.569-1.711,0.38H21.09c-0.569,0-0.759-0.569-0.948-0.38c-0.38,0.38-0.38,0.38-0.759,0.569l-0.189,0.189
		c-0.38,0.189-0.572,0.379-0.763,0.572l-1.517,0.568l0,0c1.707,0.38,3.417,0.57,5.127,0.57l0,0
		C23.559,53.149,25.266,52.959,26.787,52.579L26.787,52.579z"/>
	<path fill-rule="evenodd" clip-rule="evenodd" fill="#E5E6E7" d="M31.342,18.785c0.189,0.189,0.38,0.189,0.38,0.379
		c-0.19,0.382-0.569,0.189-0.569-0.19L31.342,18.785L31.342,18.785z M33.053,17.458c0.189,0.189,0.379,0.189,0.379,0.379
		c-0.189,0.379-0.379,0.379-0.762,0.19c-0.189,0-0.189-0.19-0.189-0.569c-0.19,0.189-1.707,0.379-2.087,0.569
		c-0.189,0-0.189,0-0.379,0c-0.19,0-0.19,0-0.38,0l-0.189,0.759c0,0.189,0,0.189-0.189,0.569l0,0
		c-0.189,0.383-0.189,0.193-0.189,0.383c0.189,0.379,0.758,0.189,0.379,0.758c0,0.19-0.189,0.379-0.379,0.569
		c-0.19,0-0.38,0-0.573-0.19c0,0.19,0,0.569,0,0.569c0.573,0.379,0.383,0.379,0.573,0.569c0.379-0.379,0.189-0.379,0-0.569
		c0.189-0.379,0.379-0.379,0.568-0.759c0.189,0,0.189,0,0.189-0.19h0.19l0,0l0,0c0,0.19,0,0.379,0.189,0.569
		c0.189-0.569,0.189-0.379-0.189-0.759c0-0.189,0.189-0.189,0.189-0.379c0-0.189-0.189-0.379-0.189-0.572
		c0.568,0,1.327,0.383,0.379,0.762c0.38,0.569,0.569,0.379,0.759,0c0.189-0.19,0.189-0.19,0.379-0.379
		c0.38-0.19,0.569-0.572,1.139-0.572v0.382c-0.189,0-0.38,0-0.38,0.19c0.38,0,0.38-0.19,0.569-0.383c0-0.189-0.189,0,0-0.189
		c0-0.19,0.193,0.189,0.762,0.189c0.19-0.189,0-0.189,0.19-0.379c0.189,0.379,0,0.379,0.379,0.379c0-0.759-0.759-0.759-0.379-1.138
		c0.189,0,0,0.19,0.568,0.379c1.139,0.19,0.569,0.379,1.139,0.759c0.192,0,0.572,0.193,0.572,0.193l0.189-0.193
		c-0.762-0.759-0.569-0.569-0.762-1.138c0-0.189,0-0.189,0-0.379c0.192-0.189,0.382-0.379,0.382-0.758l-1.331,0.189
		c-0.568,0.19-0.568,0-1.138,0.19C33.243,17.458,33.243,17.458,33.053,17.458L33.053,17.458z"/>
	<path fill-rule="evenodd" clip-rule="evenodd" fill="#E5E6E7" d="M32.86,16.699c0.572,0,1.521-0.19,2.09-0.383
		c0.379,0,0.379,0.193,0.569,0h0.572c-0.572-0.569-1.331-1.138-1.9-1.707c-0.379,0.189-0.569,0.569-0.759,0.948
		S33.053,16.126,32.86,16.699L32.86,16.699z"/>
	<path fill-rule="evenodd" clip-rule="evenodd" fill="#E5E6E7" d="M37.04,17.078c0,0.379-0.189,0.189-0.189,0.569
		c0.189,0.189,0.189,0.379,0.189,0.569c0,0.19,0,0.19,0,0.569s0.189,0,0,0.379c0,0.189,0.379,1.331-0.189,1.521
		c-0.38,0-0.38,0-0.759,0c0.189,0.189,0.189,0.189,0.568,0.189c0.38,0,0.19,0,0.38-0.189c0.189-0.19,0.379,0,0.379-0.379
		s0.189-0.189,0.189-0.379c0-0.189-0.189-0.379-0.189-0.572c0,0,0.38,0,0.38-0.189c-0.19,0-0.19,0-0.38,0
		c-0.189-0.759,0-0.759,0-0.949c-0.189-0.379-0.189-0.569-0.189-0.758L37.04,17.078z"/>
	<path fill-rule="evenodd" clip-rule="evenodd" fill="#E5E6E7" d="M15.586,38.91c0.189-0.38,0.189-1.138,0.189-1.71
		c-0.379,0-0.379,0-0.759,0c0,0.379-0.379-0.189,0.19,0.951C15.397,38.53,15.397,38.721,15.586,38.91L15.586,38.91z"/>
	<path fill-rule="evenodd" clip-rule="evenodd" fill="#E5E6E7" d="M13.876,18.406l0.189-0.19h0.189h-0.379
		c0-0.189-0.19-0.758-0.569-0.758c0,0.189,0,0.189,0,0.189c0.189,0.189,0.189,0,0.189,0.189c-0.379,0.19-0.569,0.19-0.379,0.379
		C13.497,18.406,13.497,18.216,13.876,18.406L13.876,18.406z"/>
	<path fill-rule="evenodd" clip-rule="evenodd" fill="#E5E6E7" d="M22.232,10.812c0,0.19,0,0.19,0.189,0.19v-0.19H22.232z
		 M22.611,10.812c0,0.19,0.189,0.379,0.569,0H22.611z"/>
	<polygon fill-rule="evenodd" clip-rule="evenodd" fill="#E5E6E7" points="1.538,37.579 1.727,37.39 1.538,37.2 	"/>
</g>
</svg>
